<svg width="66" height="66" viewBox="0 0 66 66" fill="none" xmlns="http://www.w3.org/2000/svg">
<path d="M57.75 36.4513C49.8863 39.6309 41.4822 41.2604 33 41.25C24.2467 41.25 15.895 39.545 8.25 36.4513M33 33H33.0275M44 16.5V11C44 9.54131 43.4205 8.14236 42.3891 7.11091C41.3576 6.07946 39.9587 5.5 38.5 5.5H27.5C26.0413 5.5 24.6424 6.07946 23.6109 7.11091C22.5795 8.14236 22 9.54131 22 11V16.5H44ZM13.75 55H52.25C53.7087 55 55.1076 54.4205 56.1391 53.3891C57.1705 52.3576 57.75 50.9587 57.75 49.5V22C57.75 20.5413 57.1705 19.1424 56.1391 18.1109C55.1076 17.0795 53.7087 16.5 52.25 16.5H13.75C12.2913 16.5 10.8924 17.0795 9.86091 18.1109C8.82946 19.1424 8.25 20.5413 8.25 22V49.5C8.25 50.9587 8.82946 52.3576 9.86091 53.3891C10.8924 54.4205 12.2913 55 13.75 55Z" stroke="#3C3B6E" stroke-width="4" stroke-linecap="round" stroke-linejoin="round"/>
</svg>
