<svg width="37" height="37" viewBox="0 0 37 37" fill="none" xmlns="http://www.w3.org/2000/svg">
<g clip-path="url(#clip0_1_119)">
<path d="M18.5002 37.0001C28.7175 37.0001 37.0002 28.7173 37.0002 18.5001C37.0002 8.28279 28.7175 6.10352e-05 18.5002 6.10352e-05C8.28298 6.10352e-05 0.000244141 8.28279 0.000244141 18.5001C0.000244141 28.7173 8.28298 37.0001 18.5002 37.0001Z" fill="#F0F0F0"/>
<path d="M36.8436 16.087H20.9134H20.9133V0.156661C20.1234 0.0538267 19.3181 6.10352e-05 18.5002 6.10352e-05C17.6824 6.10352e-05 16.8771 0.0538267 16.0872 0.156661V16.0869V16.087H0.156844C0.0540098 16.8769 0.000244141 17.6821 0.000244141 18.5001C0.000244141 19.318 0.0540098 20.1232 0.156844 20.9131H16.0871H16.0872V36.8435C16.8771 36.9463 17.6824 37.0001 18.5002 37.0001C19.3181 37.0001 20.1234 36.9464 20.9133 36.8435V20.9132V20.9132H36.8436C36.9465 20.1232 37.0002 19.318 37.0002 18.5001C37.0002 17.6821 36.9465 16.8769 36.8436 16.087Z" fill="#D80027"/>
</g>
<defs>
<clipPath id="clip0_1_119">
<rect width="37" height="37" fill="white"/>
</clipPath>
</defs>
</svg>
