<svg width="20" height="20" viewBox="0 0 20 20" fill="none" xmlns="http://www.w3.org/2000/svg">
<g opacity="0.2">
<path fill-rule="evenodd" clip-rule="evenodd" d="M3.70692 2.29301C3.51832 2.11085 3.26571 2.01006 3.00352 2.01234C2.74132 2.01461 2.49051 2.11978 2.3051 2.30519C2.11969 2.4906 2.01452 2.74141 2.01224 3.00361C2.00997 3.26581 2.11076 3.51841 2.29292 3.70701L16.2929 17.707C16.4815 17.8892 16.7341 17.99 16.9963 17.9877C17.2585 17.9854 17.5093 17.8802 17.6947 17.6948C17.8801 17.5094 17.9853 17.2586 17.9876 16.9964C17.9899 16.7342 17.8891 16.4816 17.7069 16.293L16.2339 14.82C17.7914 13.5781 18.9432 11.8999 19.5419 10C18.2679 5.94301 14.4779 3.00001 9.99992 3.00001C8.43235 2.99788 6.88642 3.36586 5.48792 4.07401L3.70792 2.29301H3.70692ZM7.96792 6.55301L9.48192 8.06801C9.82101 7.97796 10.1778 7.97856 10.5166 8.06974C10.8554 8.16092 11.1643 8.33949 11.4124 8.58758C11.6604 8.83566 11.839 9.14455 11.9302 9.48334C12.0214 9.82213 12.022 10.1789 11.9319 10.518L13.4459 12.032C13.8969 11.268 14.0811 10.3758 13.9696 9.49569C13.858 8.61557 13.4571 7.7975 12.8297 7.17019C12.2024 6.54287 11.3844 6.1419 10.5042 6.03036C9.62412 5.91881 8.7319 6.10302 7.96792 6.55401V6.55301Z" fill="#1F201D"/>
<path d="M12.454 16.697L9.75001 13.992C8.77769 13.9311 7.86103 13.5174 7.17206 12.8286C6.4831 12.1398 6.06918 11.2233 6.00801 10.251L2.33501 6.578C1.49022 7.58402 0.852357 8.74692 0.458008 10C1.73201 14.057 5.52301 17 10 17C10.847 17 11.669 16.895 12.454 16.697Z" fill="#1F201D"/>
</g>
</svg>
