<svg width="66" height="66" viewBox="0 0 66 66" fill="none" xmlns="http://www.w3.org/2000/svg">
<path d="M40.7782 27.0282C42.8411 24.9653 44 22.1674 44 19.25C44 16.3326 42.8411 13.5347 40.7782 11.4718C38.7153 9.40892 35.9174 8.25 33 8.25C30.0826 8.25 27.2847 9.40892 25.2218 11.4718C23.1589 13.5347 22 16.3326 22 19.25C22 22.1674 23.1589 24.9653 25.2218 27.0282C27.2847 29.0911 30.0826 30.25 33 30.25C35.9174 30.25 38.7153 29.0911 40.7782 27.0282Z" stroke="#3C3B6E" stroke-width="4" stroke-linecap="round" stroke-linejoin="round"/>
<path d="M19.3882 44.1382C22.9983 40.5281 27.8946 38.5 33 38.5C38.1054 38.5 43.0017 40.5281 46.6118 44.1382C50.2219 47.7483 52.25 52.6446 52.25 57.75H13.75C13.75 52.6446 15.7781 47.7483 19.3882 44.1382Z" stroke="#3C3B6E" stroke-width="4" stroke-linecap="round" stroke-linejoin="round"/>
</svg>
